<?xml version="1.0" encoding="utf-8"?>
<!-- Generator: Adobe Illustrator 27.7.0, SVG Export Plug-In . SVG Version: 6.00 Build 0)  -->
<svg version="1.1" id="레이어_1" xmlns="http://www.w3.org/2000/svg" xmlns:xlink="http://www.w3.org/1999/xlink" x="0px"
	 y="0px" viewBox="0 0 113.4 98" style="enable-background:new 0 0 113.4 98;" xml:space="preserve">
<style type="text/css">
	.st0{fill:#FFFFFF;}
</style>
<path class="st0" d="M107.6,44.1c-0.4,0-0.7,0-1,0.1c-0.8-2-3-3.6-5.7-4.4C100.4,17.8,80.7,0,56.6,0C32.3,0,12.5,18.1,12.3,40.4
	c-2.6,0.6-4.7,2-5.8,3.8c-0.3,0-0.5-0.1-0.8-0.1c-3.2,0-5.7,2.6-5.7,5.7V69c0,3.2,2.6,5.7,5.7,5.7c0.1,0,0.3,0,0.4,0
	c1,2.9,4.6,5,8.8,5c5,0,9.1-3,9.1-6.6V46.7c0-2.4-1.7-4.4-4.3-5.6c0-0.1,0-0.3,0-0.4c0-18.3,16.5-33.2,36.8-33.2
	c20.1,0,36.5,14.7,36.8,32.8c-2.8,1.1-4.7,3.3-4.7,5.8v26.3c0,3.4,3.5,6.2,8,6.6c-0.3,1.8-1.1,4.2-3.2,6.5c-4,4.2-11.4,6.4-21.6,6.4
	c-0.4-2.7-3.4-4.8-7-4.8c-3.9,0-7.1,2.4-7.1,5.4c0,3,3.2,5.4,7.1,5.4c3.3,0,6.1-1.7,6.9-4.1c0.1,0,0.2,0,0.3,0
	c10.8,0,18.5-2.4,22.9-7.1c2.5-2.7,3.4-5.6,3.7-7.8c3.6-0.2,6.6-2,7.7-4.4c0.4,0.1,0.8,0.1,1.2,0.1c3.2,0,5.7-2.6,5.7-5.7V49.8
	C113.4,46.7,110.8,44.1,107.6,44.1z M3,69V49.8c0-1.5,1.2-2.7,2.7-2.7c0,0,0.1,0,0.1,0v24.6c0,0-0.1,0-0.1,0C4.2,71.7,3,70.5,3,69z
	 M110.4,69c0,1.5-1.2,2.7-2.7,2.7c-0.2,0-0.4,0-0.7-0.1V47.2c0.2-0.1,0.4-0.1,0.7-0.1c1.5,0,2.7,1.2,2.7,2.7V69z"/>
</svg>
