<?xml version="1.0" encoding="utf-8"?>
<!-- Generator: Adobe Illustrator 27.7.0, SVG Export Plug-In . SVG Version: 6.00 Build 0)  -->
<svg version="1.1" id="Isolation_Mode" xmlns="http://www.w3.org/2000/svg" xmlns:xlink="http://www.w3.org/1999/xlink" x="0px"
	 y="0px" viewBox="0 0 500 500" style="enable-background:new 0 0 500 500;" xml:space="preserve">
<style type="text/css">
	.st0{fill:#391B1B;}
	.st1{fill:#FAE300;}
</style>
<path class="st0" d="M248.1,77.4c-106.6,0-193,68.3-193,152.6c0,54.9,36.6,102.9,91.6,129.8c-4,15.1-14.6,54.6-16.7,63.1
	c-2.6,10.5,3.9,10.4,8.1,7.5c3.3-2.2,52.9-35.9,74.3-50.5c11.6,1.7,23.6,2.6,35.8,2.6c106.6,0,193-68.3,193-152.6
	C441.2,145.7,354.7,77.4,248.1,77.4"/>
<g>
	<path class="st1" d="M170.5,185H114c-5.3,0-9.6,4.3-9.6,9.6c0,5.3,4.3,9.6,9.6,9.6h18.4v67.6c0,2.5,1,4.9,2.8,6.6
		c1.7,1.7,4.1,2.7,6.6,2.7h2.1c2.5,0,4.9-1,6.6-2.7c1.8-1.8,2.8-4.2,2.8-6.6v-67.6h17.3c5.3,0,9.6-4.3,9.6-9.6
		C180.1,189.3,175.8,185,170.5,185z"/>
	<path class="st1" d="M306.1,263.2h-26.2v-69.1c0-5.8-4.7-10.4-10.4-10.4c-5.8,0-10.4,4.7-10.4,10.4v74.4c0,0.6,0.1,1.1,0.2,1.7
		c-0.1,0.5-0.2,1.1-0.2,1.7c0,4.8,3.9,8.7,8.7,8.7h38.4c4.8,0,8.7-3.9,8.7-8.7C314.8,267.1,310.9,263.2,306.1,263.2z"/>
	<path class="st1" d="M390,266.3l-29.3-38.4l26.4-26.4c3.6-3.6,3.6-9.4,0-13c-3.6-3.6-9.4-3.6-13,0l-32.7,32.7v-27.1
		c0-5.8-4.7-10.4-10.4-10.4c-5.8,0-10.4,4.7-10.4,10.4v76.7c0,5.8,4.7,10.4,10.4,10.4c5.8,0,10.4-4.7,10.4-10.4v-23.7l5.9-5.9
		l27.7,36.3c3.1,4.1,8.9,5,13,1.9C392.3,276.3,393.1,270.5,390,266.3z"/>
	<path class="st1" d="M251.2,268.8l-28.1-77c0,0-0.1-0.1-0.1-0.1c-1.8-4.7-7-8.1-13.2-8.1c-6.9,0-12.5,4.2-13.7,9.7
		c-0.2,0.4-0.4,0.8-0.5,1.3L168,268.8c-1.7,4.9,0.9,10.2,5.7,11.9c4.9,1.7,10.2-0.9,11.9-5.7l4.8-13.7h38.5l4.8,13.7
		c1.7,4.9,7,7.4,11.9,5.7C250.4,279,252.9,273.7,251.2,268.8z M196.5,243.9l12.9-36.9c0.1,0,0.3,0,0.4,0l12.9,36.9H196.5z"/>
</g>
</svg>
